<svg width="18" height="22" viewBox="0 0 18 22" fill="none" xmlns="http://www.w3.org/2000/svg">
<path d="M17.3636 9.18182C17.3636 15.5455 9.18182 21 9.18182 21C9.18182 21 1 15.5455 1 9.18182C1 7.01187 1.86201 4.93079 3.3964 3.3964C4.93079 1.86201 7.01186 1 9.18182 1C11.3518 1 13.4328 1.86201 14.9672 3.3964C16.5016 4.93079 17.3636 7.01187 17.3636 9.18182Z" stroke="#555555" stroke-linecap="round" stroke-linejoin="round"/>
<path d="M8.72727 11.4545C10.2335 11.4545 11.4545 10.2335 11.4545 8.72727C11.4545 7.22104 10.2335 6 8.72727 6C7.22104 6 6 7.22104 6 8.72727C6 10.2335 7.22104 11.4545 8.72727 11.4545Z" stroke="#555555" stroke-linecap="round" stroke-linejoin="round"/>
</svg>
