<svg width="40" height="40" viewBox="0 0 40 40" fill="none" xmlns="http://www.w3.org/2000/svg">
<circle cx="20" cy="20" r="20" fill="#DDDDDD"/>
<path d="M16.4512 23.8909L19.5623 27L22.6734 23.8909" stroke="#555555" stroke-linecap="round" stroke-linejoin="round"/>
<path d="M19.5625 20.0044V26.9998" stroke="#555555" stroke-linecap="round" stroke-linejoin="round"/>
<path d="M26.4692 24.7381C27.1454 24.2629 27.6525 23.5847 27.9169 22.802C28.1812 22.0193 28.1892 21.1728 27.9395 20.3852C27.6898 19.5977 27.1955 18.9102 26.5284 18.4224C25.8612 17.9347 25.0558 17.672 24.2292 17.6727H23.2492C23.0153 16.7616 22.5776 15.9155 21.9691 15.1979C21.3606 14.4804 20.5971 13.9101 19.7361 13.5301C18.8752 13.1501 17.9392 12.9702 16.9986 13.004C16.058 13.0378 15.1374 13.2844 14.306 13.7253C13.4745 14.1661 12.754 14.7897 12.1987 15.549C11.6433 16.3084 11.2676 17.1838 11.0997 18.1093C10.9319 19.0348 10.9763 19.9863 11.2297 20.8922C11.4831 21.798 11.9388 22.6346 12.5625 23.339" stroke="#555555" stroke-linecap="round" stroke-linejoin="round"/>
</svg>
