<svg width="32" height="32" viewBox="0 0 32 32" fill="none" xmlns="http://www.w3.org/2000/svg">
<rect width="32" height="32" rx="10" fill="#F59122"/>
<path d="M15.1566 9.68701H9.59035C9.16856 9.68701 8.76405 9.85457 8.4658 10.1528C8.16755 10.4511 8 10.8556 8 11.2774V22.4098C8 22.8316 8.16755 23.2361 8.4658 23.5344C8.76405 23.8326 9.16856 24.0002 9.59035 24.0002H20.7228C21.1446 24.0002 21.5491 23.8326 21.8474 23.5344C22.1456 23.2361 22.3132 22.8316 22.3132 22.4098V16.8436" stroke="white" stroke-width="1.5" stroke-linecap="round" stroke-linejoin="round"/>
<path d="M21.1208 8.49406C21.4372 8.17772 21.8662 8 22.3136 8C22.761 8 23.19 8.17772 23.5063 8.49406C23.8227 8.8104 24.0004 9.23945 24.0004 9.68682C24.0004 10.1342 23.8227 10.5632 23.5063 10.8796L15.9522 18.4337L12.7715 19.2289L13.5667 16.0482L21.1208 8.49406Z" stroke="white" stroke-width="1.5" stroke-linecap="round" stroke-linejoin="round"/>
</svg>
