<svg width="257" height="250" viewBox="0 0 257 250" fill="none" xmlns="http://www.w3.org/2000/svg">
<path fill-rule="evenodd" clip-rule="evenodd" d="M217.959 85.8313C230.085 103.302 231.193 128.478 222.533 147.901C214.447 166.036 190.139 168.539 175.233 181.656C161.92 193.372 156.496 212.653 140.427 220.155C121.361 229.057 96.7261 238.111 79.1753 226.504C61.4076 214.754 70.8045 185.601 60.2221 167.114C48.771 147.109 17.3107 139.174 16.0127 116.16C14.7337 93.4827 34.0465 72.1233 54.283 61.8089C72.8703 52.3352 94.3589 65.6971 115.221 65.5947C131.413 65.5152 146.525 58.149 162.412 61.2782C182.772 65.2887 206.127 68.7832 217.959 85.8313Z" fill="#FFF2E3"/>
<path d="M57.1939 209.342C59.7993 214.173 65.3289 216.248 65.3289 216.248C65.3289 216.248 66.6343 210.488 64.0289 205.656C61.4235 200.824 55.8939 198.75 55.8939 198.75C55.8939 198.75 54.5885 204.51 57.1939 209.342Z" fill="#2F2E41"/>
<path d="M58.985 207.752C63.6888 210.582 65.5004 216.203 65.5004 216.203C65.5004 216.203 59.6856 217.236 54.9817 214.406C50.2779 211.576 48.4663 205.955 48.4663 205.955C48.4663 205.955 54.2811 204.922 58.985 207.752Z" fill="#F59122"/>
<path d="M164.445 67.4556H135.097V67.8748H164.445V67.4556Z" fill="#FFC788"/>
<path d="M156.479 67.77H156.06V71.6482H156.479V67.77Z" fill="#FFC788"/>
<path d="M143.692 67.77H143.272V71.6482H143.692V67.77Z" fill="#FFC788"/>
<path d="M179.33 87.5803H149.981V87.9996H179.33V87.5803Z" fill="#FFC788"/>
<path d="M158.366 83.8069H157.947V87.6851H158.366V83.8069Z" fill="#FFC788"/>
<path d="M171.154 83.8069H170.734V87.6851H171.154V83.8069Z" fill="#FFC788"/>
<path d="M218.321 97.0139H188.973V97.4332H218.321V97.0139Z" fill="#FFC788"/>
<path d="M197.358 93.2405H196.938V97.1187H197.358V93.2405Z" fill="#FFC788"/>
<path d="M210.146 93.2405H209.727V97.1187H210.146V93.2405Z" fill="#FFC788"/>
<path d="M215.386 194.284H186.038V194.703H215.386V194.284Z" fill="#FFC788"/>
<path d="M194.423 190.51H194.004V194.388H194.423V190.51Z" fill="#FFC788"/>
<path d="M207.211 190.51H206.792V194.388H207.211V190.51Z" fill="#FFC788"/>
<path d="M165.284 126.991H135.935V127.41H165.284V126.991Z" fill="#FFC788"/>
<path d="M144.321 123.218H143.901V127.096H144.321V123.218Z" fill="#FFC788"/>
<path d="M157.108 123.218H156.689V127.096H157.108V123.218Z" fill="#FFC788"/>
<path d="M174.508 177.513H145.159V177.932H174.508V177.513Z" fill="#FFC788"/>
<path d="M153.545 173.74H153.125V177.618H153.545V173.74Z" fill="#FFC788"/>
<path d="M166.332 173.74H165.913V177.618H166.332V173.74Z" fill="#FFC788"/>
<path d="M221.466 162.21H192.117V162.629H221.466V162.21Z" fill="#FFC788"/>
<path d="M200.502 158.437H200.083V162.315H200.502V158.437Z" fill="#FFC788"/>
<path d="M213.29 158.437H212.871V162.315H213.29V158.437Z" fill="#FFC788"/>
<path d="M124.366 207.129H74.728V206.772H124.009V189.452H78.901L76.7097 184.887L77.0317 184.732L79.1257 189.095H124.366V207.129Z" fill="#2F2E41"/>
<path d="M81.3346 215.878C83.4055 215.878 85.0843 214.199 85.0843 212.129C85.0843 210.058 83.4055 208.379 81.3346 208.379C79.2637 208.379 77.585 210.058 77.585 212.129C77.585 214.199 79.2637 215.878 81.3346 215.878Z" fill="#3F3D56"/>
<path d="M118.295 215.878C120.366 215.878 122.045 214.199 122.045 212.129C122.045 210.058 120.366 208.379 118.295 208.379C116.224 208.379 114.545 210.058 114.545 212.129C114.545 214.199 116.224 215.878 118.295 215.878Z" fill="#3F3D56"/>
<path d="M161.862 134.815C163.144 134.815 164.183 133.775 164.183 132.493C164.183 131.211 163.144 130.172 161.862 130.172C160.58 130.172 159.541 131.211 159.541 132.493C159.541 133.775 160.58 134.815 161.862 134.815Z" fill="#3F3D56"/>
<path d="M129.675 183.56H73.8815L61.8091 144.099H142.108L142.035 144.332L129.675 183.56ZM74.1457 183.203H129.413L141.621 144.456H62.2917L74.1457 183.203Z" fill="#2F2E41"/>
<path d="M125.32 181.507H76.3146L65.7109 146.51H136.24L136.176 146.716L125.32 181.507Z" fill="#FFC788"/>
<path d="M143.108 140.574L142.763 140.482L145.12 131.6H158.827V131.958H145.394L143.108 140.574Z" fill="#2F2E41"/>
<path d="M138.095 156.062H65.7104V156.42H138.095V156.062Z" fill="#2F2E41"/>
<path d="M133.95 169.219H69.7354V169.576H133.95V169.219Z" fill="#2F2E41"/>
<path d="M102.136 144.278H101.779V183.381H102.136V144.278Z" fill="#2F2E41"/>
<path d="M118.124 144.267L115.561 183.369L115.917 183.393L118.48 144.29L118.124 144.267Z" fill="#2F2E41"/>
<path d="M85.7978 144.266L85.4414 144.29L87.99 183.393L88.3464 183.37L85.7978 144.266Z" fill="#2F2E41"/>
<path d="M236.298 216.105H48.4663V216.524H236.298V216.105Z" fill="#2F2E41"/>
<path d="M173.284 72.8994C173.284 72.8994 176.349 81.6214 174.463 82.9633C172.577 84.3051 180.828 95.2636 180.828 95.2636L190.728 92.5799L185.306 83.4105C185.306 83.4105 184.599 74.2412 184.599 72.8994C184.599 71.5575 173.284 72.8994 173.284 72.8994Z" fill="#FFBC71"/>
<path opacity="0.1" d="M173.284 72.8994C173.284 72.8994 176.349 81.6214 174.463 82.9633C172.577 84.3051 180.828 95.2636 180.828 95.2636L190.728 92.5799L185.306 83.4105C185.306 83.4105 184.599 74.2412 184.599 72.8994C184.599 71.5575 173.284 72.8994 173.284 72.8994Z" fill="black"/>
<path d="M168.14 135.072C168.14 135.072 167.246 146.254 168.14 152.069C169.035 157.883 170.377 173.986 170.377 173.986C170.377 173.986 170.377 204.401 175.297 204.848C180.217 205.296 183.795 205.743 184.243 203.954C184.69 202.165 182.006 201.27 183.348 200.375C184.69 199.481 185.137 196.35 183.348 192.772C181.559 189.193 183.348 152.963 183.348 152.963L191.846 175.775C191.846 175.775 192.741 194.561 193.635 197.244C194.53 199.928 192.741 204.848 195.872 205.296C199.003 205.743 202.581 203.059 204.37 202.165C206.159 201.27 201.687 201.27 202.581 200.823C203.476 200.375 206.159 199.034 205.265 198.586C204.37 198.139 203.476 176.669 203.476 176.669C203.476 176.669 201.016 130.823 197.885 129.034C194.754 127.244 192.741 130.326 192.741 130.326L168.14 135.072Z" fill="#2F2E41"/>
<path d="M176.191 203.059V206.637C176.191 206.637 172.165 216.364 176.191 216.364C180.217 216.364 183.348 217.372 183.348 216.03V203.954L176.191 203.059Z" fill="#2F2E41"/>
<path d="M202.581 203.053V206.631C202.581 206.631 206.606 216.358 202.581 216.358C198.555 216.358 195.424 217.366 195.424 216.024V203.948L202.581 203.053Z" fill="#2F2E41"/>
<path d="M179.546 79.385C183.993 79.385 187.597 75.7803 187.597 71.3338C187.597 66.8873 183.993 63.2827 179.546 63.2827C175.1 63.2827 171.495 66.8873 171.495 71.3338C171.495 75.7803 175.1 79.385 179.546 79.385Z" fill="#FFBC71"/>
<path d="M177.086 86.3181C177.086 86.3181 179.322 93.0274 182.901 91.6855L186.479 90.3437L192.741 133.283C192.741 133.283 187.821 140.44 180.664 135.967C173.508 131.494 177.086 86.3181 177.086 86.3181Z" fill="#F59122"/>
<path d="M183.348 84.9763L185.361 80.7271C185.361 80.7271 197.214 86.3181 199.003 88.1072C200.792 89.8964 200.792 92.5801 200.792 92.5801L197.661 103.762C197.661 103.762 198.556 128.363 198.556 129.257C198.556 130.152 201.687 135.072 199.45 133.283C197.214 131.494 196.767 129.705 194.978 132.388C193.188 135.072 189.163 138.203 189.163 138.203L183.348 84.9763Z" fill="#3F3D56"/>
<path d="M199.003 117.181L197.661 129.705C197.661 129.705 189.61 136.861 191.399 137.308C193.188 137.756 194.083 135.967 194.083 135.967C194.083 135.967 197.214 139.098 199.003 137.308C200.792 135.519 205.265 118.523 205.265 118.523L199.003 117.181Z" fill="#FFBC71"/>
<path d="M179.717 59.9554C177.932 59.8916 176.022 59.8601 174.517 60.8219C173.825 61.3046 173.218 61.8991 172.72 62.581C171.255 64.4339 169.988 66.7652 170.533 69.064L171.165 68.8174C171.165 69.4311 171.029 70.037 170.766 70.5915C170.855 70.3325 171.153 70.7511 171.073 71.013L170.376 73.2981C171.521 72.8784 172.946 73.7283 173.12 74.9353C173.2 72.2811 173.475 69.2376 175.628 67.6834C176.714 66.8997 178.088 66.6604 179.41 66.4479C180.63 66.2519 181.909 66.065 183.077 66.4666C184.245 66.8681 185.24 68.0629 184.975 69.2696C185.514 69.084 186.116 69.4594 186.383 69.9631C186.649 70.4669 186.663 71.0611 186.671 71.6308C187.245 72.0366 187.899 71.2308 188.133 70.5677C188.682 69.0113 189.17 67.3546 188.874 65.7308C188.578 64.1071 187.255 62.5554 185.605 62.5499C185.805 62.3298 185.912 62.0405 185.903 61.743L184.542 61.6281C184.888 61.5792 185.205 61.4118 185.441 61.1544C184.895 61.7554 180.6 59.987 179.717 59.9554Z" fill="#2F2E41"/>
<path d="M179.322 83.6341C179.322 83.6341 175.681 80.066 174.37 80.2845C173.06 80.5031 171.271 83.6341 171.271 83.6341C171.271 83.6341 160.536 87.2124 160.983 90.7907C161.431 94.3689 166.351 111.813 166.351 111.813C166.351 111.813 170.376 132.835 166.798 135.072C163.22 137.308 183.795 143.123 184.242 140.439C184.689 137.756 185.584 110.918 184.242 106.893C182.9 102.867 179.322 83.6341 179.322 83.6341Z" fill="#3F3D56"/>
<path d="M194.978 90.7908H200.508C200.508 90.7908 204.371 107.788 204.818 109.577C205.265 111.366 206.16 119.864 205.712 119.864C205.265 119.864 196.319 118.075 196.319 119.417L194.978 90.7908Z" fill="#3F3D56"/>
<path d="M194.79 132.88H173.617C171.551 123.376 171.378 114.192 173.617 105.418H194.79C191.373 114.035 191.16 123.155 194.79 132.88Z" fill="#FFC788"/>
<path d="M165.009 121.206L171.271 123.89C171.271 123.89 183.348 125.679 183.348 120.759C183.348 115.839 171.271 118.522 171.271 118.522L167.245 117.235L165.009 121.206Z" fill="#FFBC71"/>
<path d="M166.351 88.1072L160.983 89.449L156.958 113.155C156.958 113.155 155.616 119.417 157.852 119.864C160.089 120.312 166.351 123.89 166.351 123.89C166.351 123.89 167.245 117.181 169.035 117.181L164.562 113.602L167.245 97.9474L166.351 88.1072Z" fill="#3F3D56"/>
<path d="M90.4448 133.909H61.0962V134.329H90.4448V133.909Z" fill="#FFC788"/>
<path d="M69.4813 130.136H69.062V134.014H69.4813V130.136Z" fill="#FFC788"/>
<path d="M82.2694 130.136H81.8501V134.014H82.2694V130.136Z" fill="#FFC788"/>
<path d="M100.717 71.8579H71.3682V72.2772H100.717V71.8579Z" fill="#FFC788"/>
<path d="M92.7513 72.1724H92.332V76.0506H92.7513V72.1724Z" fill="#FFC788"/>
<path d="M79.9632 72.1724H79.5439V76.0506H79.9632V72.1724Z" fill="#FFC788"/>
<path d="M130.275 113.156H100.927V113.575H130.275V113.156Z" fill="#FFC788"/>
<path d="M122.309 113.47H121.89V117.348H122.309V113.47Z" fill="#FFC788"/>
<path d="M109.522 113.47H109.103V117.348H109.522V113.47Z" fill="#FFC788"/>
<path d="M80.3823 112.946H51.0337V113.365H80.3823V112.946Z" fill="#FFC788"/>
<path d="M72.4163 113.26H71.9971V117.139H72.4163V113.26Z" fill="#FFC788"/>
<path d="M59.6287 113.26H59.2095V117.139H59.6287V113.26Z" fill="#FFC788"/>
<path d="M115.601 91.9827H86.2524V92.4019H115.601V91.9827Z" fill="#FFC788"/>
<path d="M94.6375 88.2092H94.2183V92.0874H94.6375V88.2092Z" fill="#FFC788"/>
<path d="M107.425 88.2092H107.006V92.0874H107.425V88.2092Z" fill="#FFC788"/>
</svg>
