<svg width="1121" height="1000" viewBox="0 0 1121 1000" fill="none" xmlns="http://www.w3.org/2000/svg">
<path fill-rule="evenodd" clip-rule="evenodd" d="M563.024 0.545849C673.718 -7.00297 775.938 64.9298 854.853 142.921C926.254 213.487 942.393 315.858 977.305 409.98C1014.13 509.265 1090.54 604.866 1064.25 707.445C1037.61 811.374 939.656 882.867 843.774 931.007C757.614 974.267 659.102 951.107 563.024 959.099C454.874 968.096 342.332 1031 246.157 980.719C147.339 929.06 104.142 810.835 74.033 703.471C44.8832 599.526 37.1782 486.761 79.8211 387.586C120.464 293.063 218.444 245.168 298.749 180.845C384.069 112.505 453.962 7.98339 563.024 0.545849Z" fill="#EAECFF"/>
<path d="M212.592 278C247.939 278 276.592 249.346 276.592 214C276.592 178.654 247.939 150 212.592 150C177.246 150 148.592 178.654 148.592 214C148.592 249.346 177.246 278 212.592 278Z" fill="#FF6584"/>
<path d="M523.976 454.122C523.976 605.133 434.202 657.861 323.461 657.861C212.719 657.861 122.945 605.133 122.945 454.122C122.945 303.11 323.461 111 323.461 111C323.461 111 523.976 303.11 523.976 454.122Z" fill="#F2F2F2"/>
<path d="M316.156 634.761L318.21 508.378L403.674 352.024L318.532 488.552L319.455 431.725L378.357 318.605L319.699 416.687L321.359 314.481L384.433 224.423L321.621 298.409L322.658 111L316.138 359.096L316.674 348.861L252.547 250.704L315.646 368.508L309.671 482.654L309.493 479.625L235.565 376.329L309.269 490.328L308.522 504.603L308.388 504.818L308.449 505.99L293.29 795.589H313.544L315.974 646.005L389.496 532.285L316.156 634.761Z" fill="#3F3D56"/>
<path d="M1120.59 515.972C1120.59 639.582 1047.11 682.742 956.461 682.742C865.813 682.742 792.329 639.582 792.329 515.972C792.329 392.362 956.461 235.11 956.461 235.11C956.461 235.11 1120.59 392.362 1120.59 515.972Z" fill="#F2F2F2"/>
<path d="M950.482 663.833L952.162 560.383L1022.12 432.4L952.426 544.154L953.182 497.639L1001.4 405.044L953.382 485.329L954.741 401.669L1006.37 327.952L954.954 388.514L955.804 235.11L950.467 438.188L950.906 429.811L898.414 349.464L950.064 445.893L945.173 539.327L945.027 536.847L884.514 452.294L944.844 545.608L944.232 557.293L944.123 557.469L944.173 558.428L931.764 795.478H948.343L950.332 673.037L1010.51 579.952L950.482 663.833Z" fill="#3F3D56"/>
<path d="M554.592 819.513C860.885 819.513 1109.18 806.962 1109.18 791.479C1109.18 775.996 860.885 763.445 554.592 763.445C248.299 763.445 0 775.996 0 791.479C0 806.962 248.299 819.513 554.592 819.513Z" fill="#3F3D56"/>
<path d="M892.445 842.598C944.906 842.598 987.434 840.449 987.434 837.797C987.434 835.145 944.906 832.995 892.445 832.995C839.984 832.995 797.457 835.145 797.457 837.797C797.457 840.449 839.984 842.598 892.445 842.598Z" fill="#3F3D56"/>
<path d="M548.72 888.916C601.18 888.916 643.708 886.766 643.708 884.114C643.708 881.462 601.18 879.312 548.72 879.312C496.259 879.312 453.731 881.462 453.731 884.114C453.731 886.766 496.259 888.916 548.72 888.916Z" fill="#3F3D56"/>
<path d="M287.944 856.249C407.798 856.249 504.959 851.337 504.959 845.279C504.959 839.22 407.798 834.309 287.944 834.309C168.091 834.309 70.9299 839.22 70.9299 845.279C70.9299 851.337 168.091 856.249 287.944 856.249Z" fill="#3F3D56"/>
<path d="M97.0837 756.27C140.714 756.27 176.084 720.9 176.084 677.27C176.084 633.639 140.714 598.27 97.0837 598.27C53.4532 598.27 18.0837 633.639 18.0837 677.27C18.0837 720.9 53.4532 756.27 97.0837 756.27Z" fill="#2F2E41"/>
<path d="M84.354 739.124L60.3557 738.841L59.8491 781.838L83.8474 782.121L84.354 739.124Z" fill="#2F2E41"/>
<path d="M132.351 739.69L108.353 739.407L107.846 782.404L131.844 782.687L132.351 739.69Z" fill="#2F2E41"/>
<path d="M99.8405 782.81C99.8893 778.668 90.9752 775.205 79.9302 775.075C68.8853 774.944 59.8921 778.197 59.8432 782.338C59.7944 786.48 68.7086 789.943 79.7535 790.074C90.7984 790.204 99.7917 786.952 99.8405 782.81Z" fill="#2F2E41"/>
<path d="M147.849 782.375C147.898 778.233 138.984 774.77 127.939 774.64C116.894 774.51 107.901 777.762 107.852 781.904C107.803 786.046 116.717 789.509 127.762 789.639C138.807 789.769 147.8 786.517 147.849 782.375Z" fill="#2F2E41"/>
<path d="M99.3193 684.295C114.231 684.295 126.319 672.207 126.319 657.295C126.319 642.383 114.231 630.295 99.3193 630.295C84.4076 630.295 72.3193 642.383 72.3193 657.295C72.3193 672.207 84.4076 684.295 99.3193 684.295Z" fill="white"/>
<path d="M99.3193 666.295C104.29 666.295 108.319 662.265 108.319 657.295C108.319 652.324 104.29 648.295 99.3193 648.295C94.3488 648.295 90.3193 652.324 90.3193 657.295C90.3193 662.265 94.3488 666.295 99.3193 666.295Z" fill="#3F3D56"/>
<path d="M21.3221 602.904C15.2803 574.264 36.0097 545.64 67.6226 538.971C99.2355 532.302 129.761 550.114 135.803 578.754C141.844 607.395 120.824 617.684 89.2114 624.353C57.5985 631.022 27.364 631.545 21.3221 602.904Z" fill="#717FE0"/>
<path d="M217.592 721.342C217.592 776.418 184.852 795.648 144.462 795.648C143.527 795.648 142.592 795.638 141.66 795.617C139.788 795.577 137.935 795.488 136.104 795.363C99.6522 792.783 71.3323 772.564 71.3323 721.342C71.3323 668.334 139.071 601.446 144.159 596.496L144.168 596.487C144.364 596.295 144.462 596.202 144.462 596.202C144.462 596.202 217.592 666.266 217.592 721.342Z" fill="#717FE0"/>
<path d="M141.798 787.223L168.545 749.849L141.731 791.326L141.66 795.617C139.788 795.577 137.935 795.488 136.104 795.363L138.986 740.26L138.964 739.833L139.013 739.753L139.285 734.548L112.404 692.969L139.369 730.645L139.432 731.75L141.611 690.117L118.597 647.152L141.891 682.81L144.159 596.496L144.168 596.202V596.487L143.789 664.551L166.7 637.568L143.696 670.414L143.09 707.69L164.481 671.916L143.001 713.175L142.662 733.898L173.718 684.106L142.546 741.129L141.798 787.223Z" fill="#3F3D56"/>
<path d="M712.485 755.415C756.115 755.415 791.485 720.046 791.485 676.415C791.485 632.785 756.115 597.415 712.485 597.415C668.854 597.415 633.485 632.785 633.485 676.415C633.485 720.046 668.854 755.415 712.485 755.415Z" fill="#2F2E41"/>
<path d="M719.228 739.205L696.287 746.255L708.919 787.358L731.86 780.308L719.228 739.205Z" fill="#2F2E41"/>
<path d="M765.109 725.109L742.168 732.159L754.8 773.262L777.741 766.212L765.109 725.109Z" fill="#2F2E41"/>
<path d="M730.386 789.13C740.945 785.885 748.517 780.045 747.301 776.085C746.084 772.126 736.538 771.547 725.98 774.791C715.422 778.036 707.849 783.876 709.066 787.836C710.282 791.795 719.828 792.374 730.386 789.13Z" fill="#2F2E41"/>
<path d="M775.975 774.073C786.533 770.828 794.106 764.988 792.889 761.029C791.672 757.069 782.127 756.49 771.568 759.735C761.01 762.98 753.437 768.82 754.654 772.779C755.871 776.739 765.416 777.318 775.975 774.073Z" fill="#2F2E41"/>
<path d="M708.521 683.71C723.433 683.71 735.521 671.622 735.521 656.71C735.521 641.799 723.433 629.71 708.521 629.71C693.61 629.71 681.521 641.799 681.521 656.71C681.521 671.622 693.61 683.71 708.521 683.71Z" fill="white"/>
<path d="M708.521 665.71C713.492 665.71 717.521 661.681 717.521 656.71C717.521 651.74 713.492 647.71 708.521 647.71C703.551 647.71 699.521 651.74 699.521 656.71C699.521 661.681 703.551 665.71 708.521 665.71Z" fill="#3F3D56"/>
<path d="M617.651 628.701C603.162 603.268 614.173 569.685 642.246 553.692C670.318 537.699 704.821 545.351 719.311 570.784C733.801 596.218 716.92 612.428 688.848 628.421C660.775 644.414 632.141 654.134 617.651 628.701Z" fill="#717FE0"/>
<path d="M571.592 711.257C571.592 761.814 541.538 779.466 504.462 779.466C503.603 779.466 502.746 779.457 501.889 779.438C500.172 779.401 498.47 779.319 496.789 779.205C463.328 776.837 437.332 758.276 437.332 711.257C437.332 662.597 499.513 601.198 504.184 596.654L504.192 596.645C504.372 596.469 504.462 596.384 504.462 596.384C504.462 596.384 571.592 660.7 571.592 711.257Z" fill="#717FE0"/>
<path d="M502.016 771.732L526.569 737.425L501.955 775.499L501.889 779.438C500.172 779.401 498.47 779.319 496.789 779.205L499.435 728.623L499.415 728.23L499.46 728.157L499.709 723.38L475.034 685.211L499.787 719.797L499.844 720.811L501.844 682.594L480.719 643.153L502.102 675.886L504.184 596.654L504.192 596.384V596.645L503.844 659.125L524.875 634.356L503.759 664.507L503.202 698.725L522.839 665.886L503.121 703.76L502.81 722.782L531.317 677.076L502.703 729.421L502.016 771.732Z" fill="#3F3D56"/>
<path d="M835.592 732.342C835.592 787.418 802.852 806.648 762.462 806.648C761.526 806.648 760.592 806.638 759.659 806.617C757.788 806.577 755.935 806.488 754.103 806.363C717.652 803.783 689.332 783.564 689.332 732.342C689.332 679.334 757.071 612.446 762.159 607.496L762.168 607.487C762.364 607.295 762.462 607.202 762.462 607.202C762.462 607.202 835.592 677.266 835.592 732.342Z" fill="#717FE0"/>
<path d="M759.798 798.223L786.545 760.849L759.731 802.326L759.66 806.617C757.789 806.577 755.935 806.488 754.104 806.363L756.987 751.26L756.964 750.833L757.013 750.753L757.285 745.548L730.404 703.969L757.37 741.645L757.432 742.75L759.611 701.117L736.598 658.152L759.892 693.81L762.159 607.496L762.168 607.202V607.487L761.79 675.551L784.701 648.568L761.696 681.414L761.09 718.69L782.482 682.916L761.001 724.175L760.662 744.898L791.718 695.106L760.547 752.129L759.798 798.223Z" fill="#3F3D56"/>
<path d="M717.503 723.707C720.437 717.519 706.838 704.925 687.127 695.576C667.416 686.228 649.059 683.665 646.124 689.853C643.189 696.041 656.789 708.636 676.499 717.984C696.21 727.333 714.568 729.895 717.503 723.707Z" fill="#2F2E41"/>
<path d="M109.478 716.476C112.026 710.119 97.6758 698.386 77.4265 690.27C57.1773 682.154 38.6965 680.728 36.1486 687.084C33.6007 693.441 47.9504 705.174 68.1997 713.29C88.4489 721.406 106.93 722.833 109.478 716.476Z" fill="#2F2E41"/>
</svg>
