<svg width="255" height="200" viewBox="0 0 255 200" fill="none" xmlns="http://www.w3.org/2000/svg">
<path d="M224.963 137.328C223.638 148.687 220.883 157.806 217.102 165.079C212.07 174.77 203.464 178.675 195.775 182.76C193.554 183.939 191.244 184.943 188.867 185.764C174.877 190.62 159.219 189.332 146.919 186.768C138.292 184.968 129.535 183.861 120.732 183.457C118.221 183.344 115.708 183.288 113.192 183.289C109.313 183.294 39.4622 184.619 22.4555 150.188C18.2567 141.695 15.3786 131.32 14.3446 118.673C11.4188 82.919 27.4997 59.4367 48.2423 44.0879C87.481 15.0532 141.266 16.2709 179.926 46.0703C205.677 65.9198 229.789 95.9608 224.963 137.328Z" fill="#E6FFF3"/>
<path d="M125.022 45.4409H123.971V16.6585C123.971 12.2404 122.216 8.00325 119.092 4.87917C115.968 1.7551 111.731 5.50905e-06 107.313 1.05725e-10H46.3334C44.1457 -7.79349e-06 41.9795 0.43087 39.9584 1.26803C37.9373 2.10519 36.1009 3.33224 34.554 4.87912C33.0071 6.426 31.7801 8.26241 30.9429 10.2835C30.1057 12.3046 29.6748 14.4708 29.6748 16.6584V174.561C29.6748 176.749 30.1057 178.915 30.9428 180.936C31.78 182.957 33.0071 184.794 34.5539 186.341C36.1008 187.887 37.9372 189.115 39.9583 189.952C41.9794 190.789 44.1456 191.22 46.3333 191.22H107.313C109.5 191.22 111.667 190.789 113.688 189.952C115.709 189.115 117.545 187.887 119.092 186.341C120.639 184.794 121.866 182.957 122.703 180.936C123.54 178.915 123.971 176.749 123.971 174.561V65.9288H125.022V45.4409Z" fill="#3F3D56"/>
<path d="M107.86 4.72803H99.8997C100.266 5.62547 100.406 6.59916 100.307 7.56332C100.208 8.52749 99.8732 9.45254 99.3326 10.257C98.792 11.0614 98.0618 11.7206 97.2064 12.1763C96.3511 12.6321 95.3967 12.8706 94.4275 12.8706H59.4931C58.5239 12.8706 57.5696 12.6321 56.7142 12.1763C55.8588 11.7206 55.1287 11.0614 54.588 10.257C54.0474 9.45254 53.7129 8.52749 53.614 7.56333C53.5151 6.59916 53.6549 5.62547 54.0209 4.72803H46.5864C43.287 4.72802 40.1227 6.03869 37.7897 8.37171C35.4567 10.7047 34.146 13.869 34.146 17.1684V174.839C34.146 176.473 34.4678 178.091 35.093 179.6C35.7182 181.11 36.6345 182.481 37.7897 183.636C38.9449 184.791 40.3163 185.708 41.8256 186.333C43.335 186.958 44.9527 187.28 46.5864 187.28H107.86C111.159 187.28 114.323 185.969 116.656 183.636C118.989 181.303 120.3 178.139 120.3 174.839V17.1684C120.3 15.5347 119.978 13.917 119.353 12.4077C118.728 10.8983 117.811 9.52692 116.656 8.37173C115.501 7.21653 114.13 6.30018 112.62 5.67499C111.111 5.0498 109.493 4.72803 107.86 4.72803H107.86ZM106.522 77.8727C106.52 78.7265 106.179 79.5446 105.576 80.1484C104.972 80.7522 104.154 81.0925 103.3 81.095H87.7254C86.8716 81.0925 86.0534 80.7522 85.4497 80.1484C84.8459 79.5446 84.5056 78.7265 84.5031 77.8727V77.0671C84.5056 76.2132 84.8459 75.3951 85.4497 74.7913C86.0534 74.1875 86.8716 73.8473 87.7254 73.8448H103.3C104.154 73.8473 104.972 74.1875 105.576 74.7913C106.179 75.3951 106.52 76.2132 106.522 77.0671V77.8727ZM108.268 63.6408C108.265 64.4946 107.925 65.3128 107.321 65.9165C106.717 66.5203 105.899 66.8606 105.045 66.8631H49.1919C48.3381 66.8606 47.5199 66.5203 46.9162 65.9165C46.3124 65.3128 45.9721 64.4946 45.9696 63.6408V62.8352C45.9721 61.9813 46.3124 61.1632 46.9162 60.5594C47.5199 59.9557 48.3381 59.6154 49.1919 59.6129H105.045C105.899 59.6154 106.717 59.9557 107.321 60.5594C107.925 61.1632 108.265 61.9813 108.268 62.8352V63.6408ZM108.268 49.4089C108.265 50.2627 107.925 51.0809 107.321 51.6846C106.717 52.2884 105.899 52.6287 105.045 52.6312H49.1919C48.3381 52.6287 47.5199 52.2884 46.9162 51.6846C46.3124 51.0809 45.9721 50.2627 45.9696 49.4089V48.6033C45.9721 47.7495 46.3124 46.9313 46.9162 46.3275C47.5199 45.7238 48.3381 45.3835 49.1919 45.381H105.045C105.899 45.3835 106.717 45.7238 107.321 46.3275C107.925 46.9313 108.265 47.7495 108.268 48.6033V49.4089ZM108.268 35.177C108.265 36.0308 107.925 36.849 107.321 37.4527C106.717 38.0565 105.899 38.3968 105.045 38.3993H49.1919C48.3381 38.3968 47.5199 38.0565 46.9162 37.4527C46.3124 36.849 45.9721 36.0308 45.9696 35.177V34.3714C45.9721 33.5176 46.3124 32.6994 46.9162 32.0956C47.5199 31.4919 48.3381 31.1516 49.1919 31.1491H105.045C105.899 31.1516 106.717 31.4919 107.321 32.0956C107.925 32.6994 108.265 33.5176 108.268 34.3714V35.177Z" fill="white"/>
<path d="M50.4002 65.2518C51.4383 65.2518 52.2799 64.4102 52.2799 63.3721C52.2799 62.334 51.4383 61.4924 50.4002 61.4924C49.3621 61.4924 48.5205 62.334 48.5205 63.3721C48.5205 64.4102 49.3621 65.2518 50.4002 65.2518Z" fill="white"/>
<path d="M56.5765 65.2518C57.6146 65.2518 58.4561 64.4102 58.4561 63.3721C58.4561 62.334 57.6146 61.4924 56.5765 61.4924C55.5383 61.4924 54.6968 62.334 54.6968 63.3721C54.6968 64.4102 55.5383 65.2518 56.5765 65.2518Z" fill="white"/>
<path d="M62.7527 65.2518C63.7909 65.2518 64.6324 64.4102 64.6324 63.3721C64.6324 62.334 63.7909 61.4924 62.7527 61.4924C61.7146 61.4924 60.873 62.334 60.873 63.3721C60.873 64.4102 61.7146 65.2518 62.7527 65.2518Z" fill="white"/>
<path d="M68.9285 65.2518C69.9666 65.2518 70.8082 64.4102 70.8082 63.3721C70.8082 62.334 69.9666 61.4924 68.9285 61.4924C67.8904 61.4924 67.0488 62.334 67.0488 63.3721C67.0488 64.4102 67.8904 65.2518 68.9285 65.2518Z" fill="white"/>
<path d="M89.0682 79.4837C90.1063 79.4837 90.9478 78.6422 90.9478 77.604C90.9478 76.5659 90.1063 75.7244 89.0682 75.7244C88.03 75.7244 87.1885 76.5659 87.1885 77.604C87.1885 78.6422 88.03 79.4837 89.0682 79.4837Z" fill="white"/>
<path d="M95.2444 79.4837C96.2825 79.4837 97.1241 78.6422 97.1241 77.604C97.1241 76.5659 96.2825 75.7244 95.2444 75.7244C94.2063 75.7244 93.3647 76.5659 93.3647 77.604C93.3647 78.6422 94.2063 79.4837 95.2444 79.4837Z" fill="white"/>
<path d="M101.42 79.4837C102.458 79.4837 103.3 78.6422 103.3 77.604C103.3 76.5659 102.458 75.7244 101.42 75.7244C100.382 75.7244 99.5405 76.5659 99.5405 77.604C99.5405 78.6422 100.382 79.4837 101.42 79.4837Z" fill="white"/>
<path d="M108.7 101.959H45.0005C43.504 101.959 42.0688 102.553 41.0106 103.611C39.9524 104.67 39.3579 106.105 39.3579 107.601V138.637C39.3579 140.133 39.9524 141.569 41.0106 142.627C42.0688 143.685 43.504 144.28 45.0005 144.28H108.7C110.196 144.28 111.632 143.685 112.69 142.627C113.748 141.569 114.343 140.134 114.343 138.637V107.601C114.343 106.105 113.748 104.67 112.69 103.611C111.632 102.553 110.196 101.959 108.7 101.959H108.7ZM43.4245 105.808C43.5503 105.785 46.5331 105.278 49.003 106.764C51.4727 108.25 52.4216 111.123 52.4607 111.244L52.5606 111.554L52.2401 111.611C51.7828 111.683 51.3205 111.716 50.8578 111.713C49.3897 111.741 47.9409 111.376 46.6615 110.655C44.1918 109.169 43.243 106.296 43.2039 106.175L43.104 105.865L43.4245 105.808ZM57.252 134.622H45.8907C45.062 134.622 44.2673 134.293 43.6814 133.707C43.0955 133.121 42.7663 132.327 42.7663 131.498C42.7663 130.67 43.0955 129.875 43.6814 129.289C44.2673 128.703 45.062 128.374 45.8907 128.374H57.252C58.0806 128.374 58.8753 128.703 59.4612 129.289C60.0472 129.875 60.3763 130.67 60.3763 131.498C60.3763 132.327 60.0472 133.121 59.4612 133.707C58.8753 134.293 58.0806 134.622 57.252 134.622ZM108.946 134.054C108.943 134.958 108.583 135.823 107.945 136.462C107.306 137.1 106.441 137.46 105.538 137.463H97.0165C96.1134 137.46 95.248 137.1 94.6094 136.462C93.9708 135.823 93.6108 134.958 93.6082 134.054V128.942C93.6108 128.039 93.9707 127.173 94.6094 126.535C95.248 125.896 96.1134 125.536 97.0165 125.533H105.538C106.441 125.536 107.306 125.896 107.945 126.535C108.583 127.173 108.943 128.039 108.946 128.942L108.946 134.054Z" fill="#5CCF98"/>
<path d="M99.764 133.001H96.3379C96.0933 133.001 95.8587 133.098 95.6857 133.271C95.5127 133.444 95.4155 133.679 95.4155 133.923C95.4155 134.168 95.5127 134.403 95.6857 134.576C95.8587 134.749 96.0933 134.846 96.3379 134.846H99.764C100.009 134.846 100.243 134.749 100.416 134.576C100.589 134.403 100.686 134.168 100.686 133.923C100.686 133.679 100.589 133.444 100.416 133.271C100.243 133.098 100.009 133.001 99.764 133.001Z" fill="#3F3D56"/>
<path d="M106.089 133.001H102.663C102.418 133.001 102.183 133.098 102.01 133.271C101.837 133.444 101.74 133.679 101.74 133.923C101.74 134.168 101.837 134.403 102.01 134.576C102.183 134.749 102.418 134.846 102.663 134.846H106.089C106.333 134.846 106.568 134.749 106.741 134.576C106.914 134.403 107.011 134.168 107.011 133.923C107.011 133.679 106.914 133.444 106.741 133.271C106.568 133.098 106.333 133.001 106.089 133.001Z" fill="#3F3D56"/>
<path d="M99.7635 130.397H96.3374C96.0928 130.397 95.8582 130.494 95.6852 130.667C95.5122 130.84 95.415 131.075 95.415 131.32C95.415 131.564 95.5122 131.799 95.6852 131.972C95.8582 132.145 96.0928 132.242 96.3374 132.242H99.7635C100.008 132.242 100.243 132.145 100.416 131.972C100.589 131.799 100.686 131.564 100.686 131.32C100.686 131.075 100.589 130.84 100.416 130.667C100.243 130.494 100.008 130.397 99.7635 130.397Z" fill="#3F3D56"/>
<path d="M106.088 130.397H102.662C102.418 130.397 102.183 130.494 102.01 130.667C101.837 130.84 101.74 131.075 101.74 131.32C101.74 131.564 101.837 131.799 102.01 131.972C102.183 132.145 102.418 132.242 102.662 132.242H106.088C106.333 132.242 106.567 132.145 106.74 131.972C106.913 131.799 107.011 131.564 107.011 131.32C107.011 131.075 106.913 130.84 106.74 130.667C106.567 130.494 106.333 130.397 106.088 130.397H106.088Z" fill="#3F3D56"/>
<path d="M99.7635 127.846H96.3374C96.0928 127.846 95.8582 127.943 95.6852 128.116C95.5122 128.289 95.415 128.524 95.415 128.769C95.415 129.013 95.5122 129.248 95.6852 129.421C95.8582 129.594 96.0928 129.691 96.3374 129.691H99.7635C100.008 129.691 100.243 129.594 100.416 129.421C100.589 129.248 100.686 129.013 100.686 128.769C100.686 128.524 100.589 128.289 100.416 128.116C100.243 127.943 100.008 127.846 99.7635 127.846Z" fill="#3F3D56"/>
<path d="M106.088 127.846H102.662C102.418 127.846 102.183 127.943 102.01 128.116C101.837 128.289 101.74 128.524 101.74 128.769C101.74 129.013 101.837 129.248 102.01 129.421C102.183 129.594 102.418 129.691 102.662 129.691H106.088C106.333 129.691 106.567 129.594 106.74 129.421C106.913 129.248 107.011 129.013 107.011 128.769C107.011 128.524 106.913 128.289 106.74 128.116C106.567 127.943 106.333 127.846 106.088 127.846H106.088Z" fill="#3F3D56"/>
<path d="M152.819 113.65H144.51V121.959H152.819V113.65Z" fill="#E6E6E6"/>
<path d="M134.718 118.694H148.368V132.344H134.718V118.694ZM147.775 119.288H135.312V131.751H147.775V119.288Z" fill="#3F3D56"/>
<path d="M8.30861 45.1038H0V53.4124H8.30861V45.1038Z" fill="#E6E6E6"/>
<path d="M18.101 48.3679H4.45117V34.718H18.101V48.3679ZM5.04464 47.7744H17.5076V35.3115H5.04464V47.7744Z" fill="#3F3D56"/>
<path d="M193.791 196.266H190.153L188.423 182.234H193.792L193.791 196.266Z" fill="#FFB8B8"/>
<path d="M187.555 195.227H194.571V199.644H183.137C183.137 198.472 183.603 197.349 184.431 196.52C185.259 195.692 186.383 195.227 187.555 195.227Z" fill="#2F2E41"/>
<path d="M211.892 196.266H208.254L206.524 182.234H211.893L211.892 196.266Z" fill="#FFB8B8"/>
<path d="M205.656 195.227H212.672V199.644H201.238C201.238 198.472 201.704 197.349 202.532 196.52C203.361 195.692 204.484 195.227 205.656 195.227Z" fill="#2F2E41"/>
<path d="M175.542 146.084C175.28 145.699 175.106 145.26 175.032 144.8C174.958 144.34 174.986 143.869 175.114 143.421C175.241 142.973 175.465 142.558 175.771 142.206C176.076 141.854 176.455 141.573 176.88 141.383L189.247 107.298L195.332 110.619L181.212 143.192C181.484 143.928 181.476 144.738 181.19 145.469C180.905 146.199 180.361 146.8 179.662 147.156C178.963 147.513 178.157 147.601 177.398 147.403C176.639 147.205 175.978 146.736 175.542 146.084Z" fill="#FFB8B8"/>
<path d="M210.034 152.489C209.629 152.257 209.281 151.939 209.013 151.558C208.744 151.177 208.563 150.742 208.481 150.283C208.399 149.824 208.419 149.353 208.539 148.903C208.659 148.453 208.876 148.034 209.175 147.677L205.344 111.621L212.269 111.937L213.862 147.403C214.429 147.945 214.777 148.677 214.84 149.459C214.904 150.241 214.678 151.019 214.207 151.646C213.735 152.273 213.049 152.705 212.28 152.86C211.511 153.016 210.712 152.883 210.034 152.489V152.489Z" fill="#FFB8B8"/>
<path d="M198.986 100.984C203.012 100.984 206.275 97.7215 206.275 93.6963C206.275 89.6712 203.012 86.4082 198.986 86.4082C194.961 86.4082 191.698 89.6712 191.698 93.6963C191.698 97.7215 194.961 100.984 198.986 100.984Z" fill="#FFB8B8"/>
<path d="M209.988 144.289H188.015L188.042 144.118C188.081 143.862 191.958 118.468 189.098 110.16C188.812 109.344 188.837 108.45 189.169 107.651C189.502 106.852 190.118 106.205 190.899 105.833H190.9C194.986 103.908 202.831 101.539 209.451 107.29C210.426 108.15 211.187 109.225 211.674 110.43C212.161 111.635 212.361 112.936 212.258 114.232L209.988 144.289Z" fill="#5CCF98"/>
<path d="M192.235 122.221L182.343 120.214L186.98 109.226C187.258 108.162 187.946 107.251 188.894 106.693C189.842 106.136 190.973 105.977 192.037 106.252C193.102 106.527 194.015 107.213 194.575 108.16C195.134 109.107 195.296 110.237 195.023 111.302L192.235 122.221Z" fill="#5CCF98"/>
<path d="M204.905 125.947L204.31 112.315C203.859 109.752 205.326 107.329 207.582 106.933C209.839 106.539 212.043 108.316 212.496 110.898L214.731 123.636L204.905 125.947Z" fill="#5CCF98"/>
<path d="M209.257 142.656C212.792 156.121 213.178 173.241 212.224 191.915L207.476 191.321L198.871 155.713L194.123 191.915L188.782 191.618C187.186 172.025 185.632 155.204 188.188 144.14L209.257 142.656Z" fill="#2F2E41"/>
<path d="M203.789 99.3288C202.429 100.777 199.904 99.9996 199.727 98.021C199.713 97.8674 199.714 97.7128 199.73 97.5594C199.821 96.683 200.328 95.8873 200.206 94.9619C200.179 94.7316 200.093 94.5121 199.957 94.3242C198.874 92.8734 196.33 94.9731 195.308 93.6597C194.681 92.8544 195.418 91.5864 194.937 90.6863C194.302 89.4983 192.421 90.0843 191.241 89.4337C189.929 88.7098 190.007 86.6963 190.871 85.4715C191.925 83.9778 193.772 83.1808 195.596 83.066C197.42 82.9511 199.232 83.4442 200.935 84.108C202.87 84.8621 204.789 85.9042 205.98 87.6057C207.428 89.6749 207.567 92.4568 206.843 94.8763C206.403 96.3481 204.899 98.1461 203.789 99.3288Z" fill="#2F2E41"/>
<path d="M253.745 200H140.689C140.61 200 140.535 199.969 140.479 199.913C140.423 199.857 140.392 199.782 140.392 199.703C140.392 199.625 140.423 199.549 140.479 199.493C140.535 199.438 140.61 199.406 140.689 199.406H253.745C253.824 199.406 253.899 199.438 253.955 199.493C254.011 199.549 254.042 199.625 254.042 199.703C254.042 199.782 254.011 199.857 253.955 199.913C253.899 199.969 253.824 200 253.745 200Z" fill="#3F3D56"/>
</svg>
