<svg width="22" height="22" viewBox="0 0 22 22" fill="none" xmlns="http://www.w3.org/2000/svg">
<path d="M20.9598 15.9738V18.9846C20.9609 19.2642 20.9036 19.5408 20.7917 19.7969C20.6797 20.053 20.5155 20.2829 20.3095 20.4719C20.1035 20.6608 19.8604 20.8047 19.5956 20.8942C19.3308 20.9838 19.0503 21.017 18.7719 20.9919C15.6837 20.6563 12.7172 19.601 10.1108 17.9108C7.68594 16.3699 5.63007 14.3141 4.08921 11.8892C2.3931 9.27099 1.33757 6.29008 1.00815 3.18795C0.983066 2.91042 1.01605 2.63071 1.10499 2.36663C1.19394 2.10254 1.3369 1.85987 1.52477 1.65407C1.71264 1.44826 1.9413 1.28383 2.1962 1.17123C2.4511 1.05864 2.72665 1.00036 3.00531 1.0001H6.01612C6.50318 0.995304 6.97536 1.16778 7.34465 1.48537C7.71395 1.80297 7.95516 2.24401 8.02333 2.72629C8.1504 3.68982 8.38608 4.63587 8.72585 5.54642C8.86088 5.90563 8.8901 6.29602 8.81006 6.67133C8.73001 7.04665 8.54406 7.39115 8.27423 7.66402L6.99965 8.93859C8.42834 11.4512 10.5087 13.5315 13.0213 14.9602L14.2958 13.6856C14.5687 13.4158 14.9132 13.2298 15.2885 13.1498C15.6638 13.0698 16.0542 13.099 16.4134 13.234C17.324 13.5738 18.27 13.8095 19.2336 13.9365C19.7211 14.0053 20.1663 14.2509 20.4846 14.6265C20.8029 15.0021 20.972 15.4817 20.9598 15.9738Z" stroke="#555555" stroke-linecap="round" stroke-linejoin="round"/>
</svg>
