<svg width="690" height="677" viewBox="0 0 690 677" fill="none" xmlns="http://www.w3.org/2000/svg">
<path fill-rule="evenodd" clip-rule="evenodd" d="M346.853 0.369045C421.692 -4.73467 490.803 43.8987 544.156 96.628C592.431 144.338 603.342 213.55 626.946 277.185C651.844 344.311 703.501 408.946 685.727 478.3C667.719 548.566 601.491 596.902 536.666 629.449C478.414 658.696 411.811 643.038 346.853 648.442C273.733 654.524 197.644 697.051 132.621 663.059C65.8102 628.132 36.605 548.201 16.2486 475.613C-3.45941 405.337 -8.66878 329.097 20.1619 262.045C47.64 198.138 113.884 165.757 168.178 122.268C225.862 76.0637 273.117 5.39753 346.853 0.369045Z" fill="#EAECFF"/>
<path d="M636.072 201.063H52.9281C44.9934 201.055 37.3863 197.899 31.7756 192.288C26.165 186.677 23.009 179.07 23 171.135V143.928C23.009 135.993 26.165 128.386 31.7756 122.776C37.3863 117.165 44.9934 114.009 52.9281 114H636.072C644.007 114.009 651.614 117.165 657.224 122.776C662.835 128.386 665.991 135.993 666 143.928V171.135C665.991 179.07 662.835 186.677 657.224 192.288C651.614 197.899 644.007 201.055 636.072 201.063V201.063ZM52.9281 115.814C45.4743 115.822 38.3282 118.787 33.0576 124.058C27.787 129.328 24.8223 136.474 24.8138 143.928V171.135C24.8223 178.589 27.787 185.735 33.0576 191.006C38.3282 196.276 45.4743 199.241 52.9281 199.25H636.072C643.526 199.241 650.672 196.276 655.942 191.006C661.213 185.735 664.178 178.589 664.186 171.135V143.928C664.178 136.474 661.213 129.328 655.942 124.058C650.672 118.787 643.526 115.822 636.072 115.814H52.9281Z" fill="#3F3D56"/>
<path d="M484.618 140.301H97.3667C87.8501 140.301 80.1354 148.015 80.1354 157.532V157.532C80.1354 167.048 87.8501 174.763 97.3667 174.763H484.618C494.134 174.763 501.849 167.048 501.849 157.532C501.849 148.015 494.134 140.301 484.618 140.301Z" fill="#E6E6E6"/>
<path d="M535.405 291.43H148.154C138.637 291.43 130.922 299.145 130.922 308.661V308.662C130.922 318.178 138.637 325.893 148.154 325.893H535.405C544.921 325.893 552.636 318.178 552.636 308.661C552.636 299.145 544.921 291.43 535.405 291.43Z" fill="#717FE0"/>
<path d="M535.405 401.004H148.154C138.637 401.004 130.922 408.719 130.922 418.235V418.235C130.922 427.752 138.637 435.467 148.154 435.467H535.405C544.921 435.467 552.636 427.752 552.636 418.235C552.636 408.719 544.921 401.004 535.405 401.004Z" fill="#E6E6E6"/>
<path d="M535.405 510.578H148.154C138.637 510.578 130.922 518.293 130.922 527.81V527.81C130.922 537.326 138.637 545.041 148.154 545.041H535.405C544.921 545.041 552.636 537.326 552.636 527.81C552.636 518.293 544.921 510.578 535.405 510.578Z" fill="#E6E6E6"/>
<path d="M609.312 176.147C608.899 176.737 608.269 177.139 607.56 177.264C606.852 177.389 606.122 177.227 605.532 176.814L590.726 166.511C590.136 166.098 589.735 165.468 589.61 164.759C589.485 164.05 589.646 163.321 590.059 162.731C590.472 162.142 591.102 161.74 591.811 161.615C592.52 161.49 593.249 161.652 593.839 162.065L608.646 172.368C609.235 172.78 609.637 173.411 609.762 174.119C609.887 174.828 609.725 175.558 609.312 176.147Z" fill="#717FE0"/>
<path d="M592.502 164.442C590.317 167.563 587.255 169.967 583.703 171.348C580.152 172.729 576.27 173.026 572.55 172.201C568.83 171.377 565.438 169.467 562.802 166.715C560.167 163.962 558.408 160.49 557.746 156.737C557.084 152.984 557.55 149.12 559.085 145.632C560.619 142.144 563.154 139.189 566.368 137.142C569.582 135.095 573.33 134.046 577.14 134.129C580.95 134.212 584.649 135.423 587.771 137.609C591.952 140.543 594.798 145.016 595.685 150.047C596.572 155.077 595.428 160.254 592.502 164.442ZM564.883 145.103C563.244 147.444 562.336 150.219 562.273 153.076C562.211 155.933 562.997 158.745 564.533 161.155C566.069 163.566 568.284 165.467 570.9 166.618C573.516 167.769 576.415 168.118 579.229 167.622C582.044 167.125 584.648 165.806 586.712 163.829C588.777 161.853 590.209 159.309 590.827 156.519C591.446 153.728 591.223 150.817 590.187 148.154C589.152 145.49 587.349 143.194 585.008 141.554C581.867 139.361 577.985 138.502 574.212 139.167C570.439 139.833 567.084 141.967 564.883 145.103V145.103Z" fill="#717FE0"/>
<path d="M619.294 342.332H69.7059C69.4654 342.332 69.2347 342.237 69.0646 342.067C68.8946 341.897 68.799 341.666 68.799 341.425C68.799 341.185 68.8946 340.954 69.0646 340.784C69.2347 340.614 69.4654 340.519 69.7059 340.519H619.294C619.535 340.519 619.765 340.614 619.935 340.784C620.105 340.954 620.201 341.185 620.201 341.425C620.201 341.666 620.105 341.897 619.935 342.067C619.765 342.237 619.535 342.332 619.294 342.332Z" fill="#3F3D56"/>
<path d="M619.294 451.951H69.7059C69.4654 451.951 69.2347 451.856 69.0646 451.686C68.8946 451.516 68.799 451.285 68.799 451.045C68.799 450.804 68.8946 450.573 69.0646 450.403C69.2347 450.233 69.4654 450.138 69.7059 450.138H619.294C619.535 450.138 619.765 450.233 619.935 450.403C620.105 450.573 620.201 450.804 620.201 451.045C620.201 451.285 620.105 451.516 619.935 451.686C619.765 451.856 619.535 451.951 619.294 451.951V451.951Z" fill="#3F3D56"/>
<path d="M619.294 561.57H69.7059C69.4654 561.57 69.2347 561.475 69.0646 561.305C68.8946 561.134 68.799 560.904 68.799 560.663C68.799 560.423 68.8946 560.192 69.0646 560.022C69.2347 559.852 69.4654 559.756 69.7059 559.756H619.294C619.535 559.756 619.765 559.852 619.935 560.022C620.105 560.192 620.201 560.423 620.201 560.663C620.201 560.904 620.105 561.134 619.935 561.305C619.765 561.475 619.535 561.57 619.294 561.57V561.57Z" fill="#3F3D56"/>
</svg>
