<svg width="1114" height="1000" viewBox="0 0 1114 1000" fill="none" xmlns="http://www.w3.org/2000/svg">
<path fill-rule="evenodd" clip-rule="evenodd" d="M607.024 0.545849C717.718 -7.00297 819.938 64.9298 898.853 142.921C970.254 213.487 986.393 315.858 1021.3 409.98C1058.13 509.265 1134.54 604.866 1108.25 707.445C1081.61 811.374 983.656 882.867 887.774 931.007C801.614 974.267 703.102 951.107 607.024 959.099C498.874 968.096 386.332 1031 290.157 980.719C191.339 929.06 148.142 810.835 118.033 703.471C88.8832 599.526 81.1782 486.761 123.821 387.586C164.464 293.063 262.444 245.168 342.749 180.845C428.069 112.505 497.962 7.98339 607.024 0.545849Z" fill="#EAECFF"/>
<path d="M968.881 560.464H959.049V948.809H968.881V560.464Z" fill="#3F3D56"/>
<path d="M1059.61 609.954C1060.24 745.748 964.701 856.274 964.701 856.274C964.701 856.274 868.148 746.634 867.522 610.839C866.896 475.044 962.435 364.518 962.435 364.518C962.435 364.518 1058.99 474.159 1059.61 609.954Z" fill="#3F3D56"/>
<path d="M772.3 743.186H767.244V942.921H772.3V743.186Z" fill="#3F3D56"/>
<path d="M818.967 768.639C819.289 838.482 770.151 895.328 770.151 895.328C770.151 895.328 720.491 838.937 720.17 769.095C719.848 699.252 768.985 642.406 768.985 642.406C768.985 642.406 818.645 698.797 818.967 768.639Z" fill="#3F3D56"/>
<path d="M871.969 969.515C947.632 969.515 1008.97 960.113 1008.97 948.515C1008.97 936.917 947.632 927.515 871.969 927.515C796.306 927.515 734.969 936.917 734.969 948.515C734.969 960.113 796.306 969.515 871.969 969.515Z" fill="#3F3D56"/>
<path d="M883.268 459.081C871.661 439.469 848.698 438.555 848.698 438.555C848.698 438.555 826.321 435.694 811.967 465.563C798.588 493.404 780.122 520.285 808.994 526.802L814.209 510.57L817.439 528.011C821.55 528.306 825.674 528.377 829.792 528.222C860.712 527.223 890.158 528.514 889.21 517.419C887.949 502.669 894.436 477.952 883.268 459.081Z" fill="#2F2E41"/>
<path d="M841.469 496.015C841.469 496.015 856.469 517.015 847.469 534.015C838.469 551.015 868.469 569.015 868.469 569.015L890.469 521.015C890.469 521.015 864.469 504.015 871.469 488.015L841.469 496.015Z" fill="#FBBEBE"/>
<path d="M851.469 505.015C865.828 505.015 877.469 493.375 877.469 479.015C877.469 464.656 865.828 453.015 851.469 453.015C837.109 453.015 825.469 464.656 825.469 479.015C825.469 493.375 837.109 505.015 851.469 505.015Z" fill="#FBBEBE"/>
<path d="M761.489 509.071L783.217 481.037C783.217 481.037 790.868 451.652 801.949 453.142C813.029 454.632 797.572 488.382 797.572 488.382L775.982 519.412L761.489 509.071Z" fill="#FBBEBE"/>
<path d="M871.469 882.015L878.469 919.015L893.469 923.015L889.469 879.015L871.469 882.015Z" fill="#FBBEBE"/>
<path d="M1022.47 842.015L1049.47 879.015L1060.47 884.015L1069.47 869.015L1042.47 834.015L1022.47 842.015Z" fill="#FBBEBE"/>
<path d="M865.469 553.015L848.788 531.056C848.788 531.056 816.469 537.015 813.469 540.015C810.469 543.015 821.469 598.015 821.469 598.015C821.469 598.015 823.469 613.015 832.469 621.015L841.469 627.015L915.469 612.015L918.251 579.089C919.265 567.096 917.761 555.024 913.838 543.646C909.915 532.268 903.658 521.835 895.469 513.015V513.015L882.593 514.775L865.469 553.015Z" fill="#575A89"/>
<path d="M817.469 542.015L812.469 540.015L789.469 538.015C789.469 538.015 781.469 536.015 783.469 532.015C785.469 528.015 787.469 527.015 783.469 526.015C779.469 525.015 778.469 524.015 779.469 521.015C780.469 518.015 786.469 512.015 786.469 512.015L769.469 498.015C769.469 498.015 768.549 498.666 767.061 499.87C758.621 506.704 731.914 531.359 751.469 556.015C774.469 585.015 801.469 602.015 823.469 596.015L817.469 542.015Z" fill="#575A89"/>
<path d="M839.469 622.015V636.015C839.469 636.015 830.469 653.015 833.469 669.015C836.469 685.015 837.469 693.015 837.469 693.015C837.795 706.623 840.155 720.105 844.469 733.015C851.469 753.015 828.469 884.015 857.469 886.015C886.469 888.015 902.469 890.015 911.469 880.015C920.469 870.015 896.469 698.015 896.469 698.015C896.469 698.015 978.469 869.015 995.469 862.015C1012.47 855.015 1055.47 839.015 1050.47 830.015C1045.47 821.015 919.469 621.015 919.469 621.015L915.469 612.015L839.469 622.015Z" fill="#2F2E41"/>
<path d="M887.469 912.015C887.469 912.015 871.469 911.015 871.469 916.015C871.469 921.015 863.469 938.015 863.469 938.015C863.469 938.015 857.469 958.015 873.469 956.015C889.469 954.015 899.469 936.015 899.469 936.015L895.469 917.015L887.469 912.015Z" fill="#2F2E41"/>
<path d="M1054.47 877.015C1054.47 877.015 1040.47 868.015 1041.47 874.015C1042.47 880.015 1043.47 896.015 1050.47 897.015C1057.47 898.015 1078.47 904.015 1079.47 906.015C1080.47 908.015 1104.47 916.015 1104.47 903.015C1104.47 890.015 1089.47 880.015 1089.47 880.015L1072.47 867.015C1072.47 867.015 1061.47 866.015 1059.47 873.015C1057.47 880.015 1054.47 877.015 1054.47 877.015Z" fill="#2F2E41"/>
<path d="M851.508 455.258C860.678 455.258 868.112 447.825 868.112 438.655C868.112 429.485 860.678 422.051 851.508 422.051C842.338 422.051 834.904 429.485 834.904 438.655C834.904 447.825 842.338 455.258 851.508 455.258Z" fill="#2F2E41"/>
<path d="M833.157 434.285C833.157 430.184 834.675 426.229 837.418 423.18C840.161 420.132 843.935 418.207 848.013 417.775C847.432 417.713 846.849 417.682 846.265 417.681C841.861 417.681 837.638 419.431 834.524 422.545C831.41 425.658 829.661 429.882 829.661 434.285C829.661 438.689 831.41 442.912 834.524 446.026C837.638 449.14 841.861 450.889 846.265 450.889C846.849 450.888 847.432 450.857 848.013 450.796C843.935 450.364 840.161 448.438 837.418 445.39C834.675 442.341 833.157 438.386 833.157 434.285V434.285Z" fill="#2F2E41"/>
<path d="M878.136 457.191L855.45 445.307L824.12 450.169L817.638 478.797L833.774 478.176L838.282 467.659V478.003L845.727 477.717L850.048 460.972L852.749 478.797L879.217 478.257L878.136 457.191Z" fill="#2F2E41"/>
<path d="M876.778 624.332L841.791 625.278C841.791 625.278 811.937 631.087 813.612 619.037C815.287 606.987 844.411 611.202 844.411 611.202L876.291 606.338L876.778 624.332Z" fill="#FBBEBE"/>
<path d="M904.46 511.32C906.219 511.054 908.014 511.424 909.524 512.364C911.034 513.304 912.159 514.752 912.696 516.448C919.545 538.032 940.647 610.261 919.681 620.171C894.988 631.842 876.967 631.329 876.967 631.329L867.322 607.581L876.102 599.341L885.477 539.066L889.969 513.515L904.46 511.32Z" fill="#575A89"/>
<path opacity="0.4" d="M897.969 551.515L893.969 591.515L858.969 606.515L897.969 597.515V551.515Z" fill="black"/>
<path d="M709.214 419.463C720.487 422.45 730.241 429.535 736.567 439.332L739.838 444.398L740.002 444.607L797.387 461.399C798.439 461.707 799.328 462.415 799.863 463.372C800.398 464.328 800.537 465.457 800.248 466.514L795.793 482.849C795.648 483.381 795.399 483.879 795.061 484.315C794.722 484.75 794.301 485.115 793.821 485.387C793.342 485.659 792.813 485.833 792.265 485.9C791.718 485.967 791.163 485.925 790.631 485.777L733.232 469.733L733.231 469.735L727.466 471.914C716.851 475.927 705.207 476.323 694.344 473.04V473.04L709.214 419.463Z" fill="#3F3D56"/>
<path d="M769.647 466.836C770.19 464.978 767.808 462.647 764.325 461.628C760.842 460.608 757.578 461.288 757.035 463.146C756.491 465.003 758.874 467.335 762.357 468.354C765.839 469.373 769.103 468.693 769.647 466.836Z" fill="#575A89"/>
<path d="M766.716 468.549C768.047 468.549 769.125 467.47 769.125 466.14C769.125 464.809 768.047 463.731 766.716 463.731C765.386 463.731 764.307 464.809 764.307 466.14C764.307 467.47 765.386 468.549 766.716 468.549Z" fill="#3F3D56"/>
<path d="M714.012 450.403C718.797 435.646 717.266 421.928 710.593 419.764C703.919 417.6 694.63 427.809 689.845 442.567C685.059 457.324 686.59 471.042 693.264 473.206C699.937 475.37 709.226 465.161 714.012 450.403Z" fill="#717FE0"/>
<path opacity="0.4" d="M712.228 449.881C716.839 435.662 715.585 422.409 709.517 419.526C709.882 419.572 710.242 419.652 710.593 419.764C717.266 421.928 718.797 435.646 714.012 450.403C709.226 465.161 699.937 475.37 693.264 473.206C693.022 473.127 692.785 473.032 692.556 472.922C699.12 473.758 707.695 463.862 712.228 449.881Z" fill="black"/>
<path d="M709.969 419.515L579.731 318.49C556.7 300.496 534.6 281.343 513.516 261.104C476.39 225.717 425.992 197.424 367.315 182.36C224.753 145.762 111.816 210.654 60.4487 305.938C-18.0459 451.542 -78.2016 687.818 269.843 562.048C345.959 534.543 423.007 531.619 481.429 517.131L692.969 473.515L709.969 419.515Z" fill="#717FE0"/>
<path d="M318.969 249.515C322.835 249.515 325.969 246.381 325.969 242.515C325.969 238.649 322.835 235.515 318.969 235.515C315.103 235.515 311.969 238.649 311.969 242.515C311.969 246.381 315.103 249.515 318.969 249.515Z" fill="#F2F2F2"/>
<path d="M454.949 258.695H453.127V256.873H452.771V258.695H450.949V259.051H452.771V260.873H453.127V259.051H454.949V258.695Z" fill="#F2F2F2"/>
<path d="M637.949 410.695H636.127V408.873H635.771V410.695H633.949V411.051H635.771V412.873H636.127V411.051H637.949V410.695Z" fill="#F2F2F2"/>
<path d="M624.949 457.695H623.127V455.873H622.771V457.695H620.949V458.051H622.771V459.873H623.127V458.051H624.949V457.695Z" fill="#F2F2F2"/>
<path d="M65.949 497.695H64.127V495.873H63.771V497.695H61.949V498.051H63.771V499.873H64.127V498.051H65.949V497.695Z" fill="#F2F2F2"/>
<path d="M145.949 279.695H144.127V277.873H143.771V279.695H141.949V280.051H143.771V281.873H144.127V280.051H145.949V279.695Z" fill="#F2F2F2"/>
<path d="M456.949 465.695H455.127V463.873H454.771V465.695H452.949V466.051H454.771V467.873H455.127V466.051H456.949V465.695Z" fill="#F2F2F2"/>
<path d="M265.949 215.695H264.127V213.873H263.771V215.695H261.949V216.051H263.771V217.873H264.127V216.051H265.949V215.695Z" fill="#F2F2F2"/>
<path d="M266.649 359.673L264.379 360.023C265.089 364.563 265.649 369.203 266.059 373.793L268.349 373.593C267.939 368.943 267.369 364.263 266.649 359.673Z" fill="#E6E6E6"/>
<path d="M260.439 332.333L258.239 333.003C259.569 337.403 260.759 341.913 261.769 346.403L264.019 345.893C262.989 341.353 261.779 336.793 260.439 332.333Z" fill="#E6E6E6"/>
<path d="M250.529 306.113L248.439 307.073C250.359 311.263 252.159 315.563 253.789 319.863L255.939 319.053C254.289 314.703 252.479 310.343 250.529 306.113Z" fill="#E6E6E6"/>
<path d="M237.129 281.533L235.189 282.763C237.659 286.643 240.029 290.663 242.229 294.693L244.249 293.593C242.029 289.513 239.629 285.453 237.129 281.533Z" fill="#E6E6E6"/>
<path d="M220.469 259.003L218.719 260.493C221.699 263.993 224.599 267.653 227.339 271.353L229.179 269.983C226.419 266.243 223.489 262.543 220.469 259.003Z" fill="#E6E6E6"/>
<path d="M200.889 238.943L199.359 240.653C202.799 243.723 206.169 246.953 209.379 250.243L211.029 248.633C207.779 245.303 204.369 242.043 200.889 238.943Z" fill="#E6E6E6"/>
<path d="M178.769 221.723L177.479 223.623C181.299 226.193 185.079 228.933 188.709 231.763L190.129 229.953C186.449 227.093 182.629 224.323 178.769 221.723Z" fill="#E6E6E6"/>
<path d="M158.639 209.763V212.363C161.029 213.613 163.399 214.923 165.719 216.263L166.869 214.273C164.169 212.713 161.426 211.21 158.639 209.763Z" fill="#E6E6E6"/>
<path d="M266.804 387.979L269.103 387.937C269.145 390.258 269.148 392.592 269.112 394.873L266.814 394.837C266.849 392.582 266.846 390.274 266.804 387.979Z" fill="#E6E6E6"/>
<path d="M131.649 556.673L129.379 557.023C130.089 561.563 130.649 566.203 131.059 570.793L133.349 570.593C132.939 565.943 132.369 561.263 131.649 556.673Z" fill="#E6E6E6"/>
<path d="M125.439 529.333L123.239 530.003C124.569 534.403 125.759 538.913 126.769 543.403L129.019 542.893C127.989 538.353 126.779 533.793 125.439 529.333Z" fill="#E6E6E6"/>
<path d="M115.529 503.113L113.439 504.073C115.359 508.263 117.159 512.563 118.789 516.863L120.939 516.053C119.289 511.703 117.479 507.343 115.529 503.113Z" fill="#E6E6E6"/>
<path d="M102.129 478.533L100.189 479.763C102.659 483.643 105.029 487.663 107.229 491.693L109.249 490.593C107.029 486.513 104.629 482.453 102.129 478.533Z" fill="#E6E6E6"/>
<path d="M85.4694 456.003L83.7194 457.493C86.6994 460.993 89.5994 464.653 92.3394 468.353L94.1794 466.983C91.4193 463.243 88.4893 459.543 85.4694 456.003Z" fill="#E6E6E6"/>
<path d="M65.8893 435.943L64.3593 437.653C67.7993 440.723 71.1692 443.953 74.3792 447.243L76.0293 445.633C72.7793 442.303 69.3692 439.043 65.8893 435.943Z" fill="#E6E6E6"/>
<path d="M43.7692 418.723L42.4792 420.623C46.2992 423.193 50.0792 425.933 53.7092 428.763L55.1292 426.953C51.4492 424.093 47.6292 421.323 43.7692 418.723Z" fill="#E6E6E6"/>
<path d="M23.6393 406.763V409.363C26.0293 410.613 28.3993 411.923 30.7193 413.263L31.8693 411.273C29.1693 409.713 26.4259 408.21 23.6393 406.763Z" fill="#E6E6E6"/>
<path d="M131.804 584.979L134.103 584.937C134.145 587.258 134.148 589.592 134.112 591.873L131.814 591.837C131.849 589.582 131.846 587.274 131.804 584.979Z" fill="#E6E6E6"/>
<path d="M593.649 457.673L591.379 458.023C592.089 462.563 592.649 467.203 593.059 471.793L595.349 471.593C594.939 466.943 594.369 462.263 593.649 457.673Z" fill="#E6E6E6"/>
<path d="M587.439 430.333L585.239 431.003C586.569 435.403 587.759 439.913 588.769 444.403L591.019 443.893C589.989 439.353 588.779 434.793 587.439 430.333Z" fill="#E6E6E6"/>
<path d="M577.529 404.113L575.439 405.073C577.359 409.263 579.159 413.563 580.789 417.863L582.939 417.053C581.289 412.703 579.479 408.343 577.529 404.113Z" fill="#E6E6E6"/>
<path d="M564.129 379.533L562.189 380.763C564.659 384.643 567.029 388.663 569.229 392.693L571.249 391.593C569.029 387.513 566.629 383.453 564.129 379.533Z" fill="#E6E6E6"/>
<path d="M547.469 357.003L545.719 358.493C548.699 361.993 551.599 365.653 554.339 369.353L556.179 367.983C553.419 364.243 550.489 360.543 547.469 357.003Z" fill="#E6E6E6"/>
<path d="M527.889 336.943L526.359 338.653C529.799 341.723 533.169 344.953 536.379 348.243L538.029 346.633C534.779 343.303 531.369 340.043 527.889 336.943Z" fill="#E6E6E6"/>
<path d="M505.769 319.723L504.479 321.623C508.299 324.193 512.079 326.933 515.709 329.763L517.129 327.953C513.449 325.093 509.629 322.323 505.769 319.723Z" fill="#E6E6E6"/>
<path d="M485.639 307.763V310.363C488.029 311.613 490.399 312.923 492.719 314.263L493.869 312.273C491.169 310.713 488.426 309.21 485.639 307.763Z" fill="#E6E6E6"/>
<path d="M593.804 485.979L596.103 485.937C596.145 488.258 596.148 490.592 596.112 492.873L593.814 492.837C593.849 490.582 593.846 488.274 593.804 485.979Z" fill="#E6E6E6"/>
<path d="M149.295 371.895H147.6V370.199H147.269V371.895H145.573V372.225H147.269V373.921H147.6V372.225H149.295V371.895Z" fill="#F2F2F2"/>
<path d="M129.754 474.252H128.059V472.556H127.728V474.252H126.032V474.583H127.728V476.278H128.059V474.583H129.754V474.252Z" fill="#F2F2F2"/>
<path d="M72.4169 563.959H70.7209V562.264H70.3899V563.959H68.6949V564.29H70.3899V565.986H70.7209V564.29H72.4169V563.959Z" fill="#F2F2F2"/>
<path d="M231.919 450.183C215.525 425.815 208.407 396.379 211.856 367.212C215.304 338.046 229.09 311.082 250.714 291.208C272.338 271.335 300.368 259.869 329.721 258.889C359.074 257.909 387.806 267.481 410.707 285.869C433.608 304.256 449.161 330.242 454.546 359.113C459.931 387.984 454.792 417.829 440.06 443.236C425.328 468.643 401.978 487.93 374.246 497.598C346.514 507.266 316.235 506.676 288.9 495.934C287.128 502.259 283.815 508.047 279.258 512.777C274.701 517.508 269.042 521.035 262.787 523.043C256.533 525.05 249.878 525.475 243.419 524.28C236.96 523.085 230.898 520.306 225.776 516.194C220.654 512.081 216.631 506.763 214.069 500.714C211.506 494.666 210.484 488.077 211.092 481.536C211.701 474.996 213.922 468.708 217.557 463.236C221.191 457.765 226.126 453.28 231.919 450.183V450.183Z" fill="#3F3D56"/>
<path d="M333.128 311.437C361.282 311.437 380.652 327.053 380.652 349.501C380.652 364.367 373.445 374.652 359.555 382.836C346.492 390.418 342.062 395.974 342.062 405.584C342.062 406.363 341.909 407.134 341.611 407.854C341.313 408.573 340.876 409.227 340.325 409.778C339.775 410.329 339.121 410.766 338.401 411.064C337.681 411.362 336.91 411.515 336.131 411.515H321.738C320.201 411.515 318.724 410.918 317.618 409.85C316.512 408.783 315.865 407.327 315.811 405.791L315.785 405.058C314.509 389.592 319.915 379.983 333.504 372.024C346.192 364.442 351.522 359.637 351.522 350.327C351.522 341.018 342.513 334.185 331.326 334.185C322.824 334.185 316.095 338.324 313.009 345.081C311.924 347.368 310.207 349.297 308.06 350.639C305.914 351.982 303.428 352.681 300.897 352.655V352.655C291.145 352.655 284.702 342.284 289.263 333.664C296.477 320.028 311.699 311.437 333.128 311.437ZM313.383 440.12C313.383 431.486 320.59 424.654 329.449 424.654C338.384 424.654 345.591 431.411 345.591 440.12C345.591 448.829 338.384 455.586 329.449 455.586C320.515 455.586 313.383 448.829 313.383 440.12V440.12Z" fill="#717FE0"/>
</svg>
