<svg width="21" height="20" viewBox="0 0 21 20" fill="none" xmlns="http://www.w3.org/2000/svg">
<path d="M7.85714 18.9999C8.33053 18.9999 8.71429 18.6162 8.71429 18.1428C8.71429 17.6694 8.33053 17.2856 7.85714 17.2856C7.38376 17.2856 7 17.6694 7 18.1428C7 18.6162 7.38376 18.9999 7.85714 18.9999Z" stroke="#222222" stroke-width="2" stroke-linecap="round" stroke-linejoin="round"/>
<path d="M17.2859 18.9999C17.7592 18.9999 18.143 18.6162 18.143 18.1428C18.143 17.6694 17.7592 17.2856 17.2859 17.2856C16.8125 17.2856 16.4287 17.6694 16.4287 18.1428C16.4287 18.6162 16.8125 18.9999 17.2859 18.9999Z" stroke="#222222" stroke-width="2" stroke-linecap="round" stroke-linejoin="round"/>
<path d="M1 1H4.42857L6.72571 12.4771C6.8041 12.8718 7.01878 13.2263 7.33218 13.4785C7.64559 13.7308 8.03774 13.8649 8.44 13.8571H16.7714C17.1737 13.8649 17.5658 13.7308 17.8792 13.4785C18.1927 13.2263 18.4073 12.8718 18.4857 12.4771L19.8571 5.28571H5.28571" stroke="#222222" stroke-width="2" stroke-linecap="round" stroke-linejoin="round"/>
</svg>
