<svg width="19" height="16" viewBox="0 0 19 16" fill="none" xmlns="http://www.w3.org/2000/svg">
<path d="M13.4444 15V13.4444C13.4444 12.6193 13.1167 11.828 12.5332 11.2445C11.9498 10.6611 11.1584 10.3333 10.3333 10.3333H4.11111C3.28599 10.3333 2.49467 10.6611 1.91122 11.2445C1.32778 11.828 1 12.6193 1 13.4444V15" stroke="#999999" stroke-width="1.5" stroke-linecap="round" stroke-linejoin="round"/>
<path d="M7.22219 7.22222C8.94041 7.22222 10.3333 5.82933 10.3333 4.11111C10.3333 2.39289 8.94041 1 7.22219 1C5.50398 1 4.11108 2.39289 4.11108 4.11111C4.11108 5.82933 5.50398 7.22222 7.22219 7.22222Z" stroke="#999999" stroke-width="1.5" stroke-linecap="round" stroke-linejoin="round"/>
<path d="M18.1112 15V13.4444C18.1107 12.7551 17.8812 12.0855 17.4589 11.5407C17.0366 10.9959 16.4453 10.6068 15.7778 10.4344" stroke="#999999" stroke-width="1.5" stroke-linecap="round" stroke-linejoin="round"/>
<path d="M12.6667 1.10114C13.336 1.27248 13.9291 1.66168 14.3527 2.20738C14.7763 2.75307 15.0062 3.42422 15.0062 4.11502C15.0062 4.80582 14.7763 5.47697 14.3527 6.02267C13.9291 6.56837 13.336 6.95757 12.6667 7.12891" stroke="#999999" stroke-width="1.5" stroke-linecap="round" stroke-linejoin="round"/>
</svg>
