<svg width="30" height="22" viewBox="0 0 30 22" fill="none" xmlns="http://www.w3.org/2000/svg">
<path d="M28.8662 4.13066C28.7125 3.5167 28.3996 2.95417 27.9589 2.49988C27.5182 2.04559 26.9655 1.71563 26.3565 1.54334C24.1314 1 15.231 1 15.231 1C15.231 1 6.33062 1 4.10553 1.59508C3.49653 1.76738 2.94379 2.09734 2.50313 2.55163C2.06247 3.00591 1.7495 3.56845 1.59582 4.18241C1.1886 6.44056 0.989402 8.73132 1.00074 11.0259C0.986224 13.3377 1.18543 15.6459 1.59582 17.9211C1.76524 18.516 2.08522 19.0571 2.52486 19.4922C2.96449 19.9273 3.50892 20.2417 4.10553 20.4049C6.33062 21 15.231 21 15.231 21C15.231 21 24.1314 21 26.3565 20.4049C26.9655 20.2326 27.5182 19.9027 27.9589 19.4484C28.3996 18.9941 28.7125 18.4316 28.8662 17.8176C29.2703 15.5764 29.4695 13.3031 29.4613 11.0259C29.4758 8.71404 29.2766 6.40582 28.8662 4.13066V4.13066Z" stroke="white" stroke-linecap="round" stroke-linejoin="round"/>
<path d="M12.3203 15.2562L19.7588 11.0259L12.3203 6.79565V15.2562Z" stroke="white" stroke-linecap="round" stroke-linejoin="round"/>
</svg>
